<svg xmlns="http://www.w3.org/2000/svg" width="891.019" height="171.526" viewBox="0 0 891.019 171.526"><g transform="translate(-139.211 -780.225)"><path d="M641.224,829.472a1.736,1.736,0,0,1-1.6-.916,8.38,8.38,0,0,0-.686-1.068q-1.68,1.682-4.651,4.27a68.423,68.423,0,0,1-10.6,6.862q-7.626,4.27-13.57,4.269-9.913,0-9.91-7.625,0-8.232,10.521-21.345a112.341,112.341,0,0,1,26.148-23.4q15.626-10.292,27.977-10.292,7.165,0,10.9,4.268a16.187,16.187,0,0,1,3.736,11.054q0,6.786-5.947,19.44Q697.332,797.3,706.633,797.3a4.473,4.473,0,0,1,3.049,1.067,3.654,3.654,0,0,1,1.22,2.9q0,3.051-12.426,19.667T673.548,855.7q-12.5,18.147-12.5,25,0,4.272,4.727,4.269,7.165,0,20.278-13.112,1.98-1.981,3.354-1.983.916,0,.915,1.3t-4.879,5.642a70.967,70.967,0,0,1-12.122,8.462q-7.242,4.117-12.578,4.117-7.168,0-7.167-6.023t7.548-18.6a257.028,257.028,0,0,1,16.7-24.471q24.242-31.254,24.242-36.44,0-.914-1.067-.914-8.691,0-29.579,16.466-11.743,23.025-31.942,47.876t-27.215,24.851q-3.813,0-3.812-3.2,0-9.908,17.076-29.5a312.7,312.7,0,0,1,39.336-37.584q8.384-16.769,8.386-26.224,0-11.585-12.35-11.587-9.456,0-22.794,9.225a107.438,107.438,0,0,0-22.794,20.963q-9.455,11.744-9.454,18.6,0,5.8,7.624,5.794,5.182,0,14.79-6.251t10.978-8.691q6.554-11.585,7.471-12.807,3.2-5.031,5.183-5.031c.508,0,.812.357.915,1.066a4.079,4.079,0,0,1-.229,2.06,14.646,14.646,0,0,1-1.3,2.439c-.61.968-1.17,1.829-1.677,2.592s-1.2,1.753-2.058,2.972-1.627,2.287-2.288,3.2a18.713,18.713,0,0,0-1.6,2.591,9.447,9.447,0,0,0-.915,4.269Q642.749,829.473,641.224,829.472Zm-26.986,59q4.117-.155,20.507-20.507a266.147,266.147,0,0,0,27.368-40.785,281.9,281.9,0,0,0-33.848,34.154q-14.636,17.688-14.637,26.071C613.627,888.119,613.83,888.476,614.238,888.476Z" transform="translate(-461)" fill="#fff"/><path d="M739.572,858.513a3.482,3.482,0,0,1,1.982-.762c.61,0,.915.357.915,1.066v.306q-15.859,13.114-26.377,19.667t-19.059,6.556q-6.861,0-6.861-6.708,0-9.909,10.062-20.355t16.924-10.444q3.81,0,3.812,4.269-.766,8.387-24.09,22.566V876.2q0,5.033,5.26,5.032a23.009,23.009,0,0,0,11.359-3.508,150.51,150.51,0,0,0,22.26-16.009Zm-26.377-5.947q-3.356,0-8.615,5.642a29.113,29.113,0,0,0-7.091,12.807,66.5,66.5,0,0,0,12.351-9.377q5.031-4.953,5.031-7.013T713.195,852.566Z" transform="translate(-456.431 3.434)" fill="#fff"/><path d="M764.834,859.492l-2.439-1.068q-2.9,0-31.562,24.852-2.744,2.437-4.04,2.44a2.325,2.325,0,0,1-1.982-.915,3.348,3.348,0,0,1-.686-2.058q0-1.145,5.184-10.368t5.185-9.91c0-.457-.2-.686-.61-.686a8.189,8.189,0,0,1-3.2,1.068q-1.069,0-1.068-.686a1.816,1.816,0,0,1,.611-1.3q6.4-5.031,8.919-5.031t2.515,2.9q0,2.9-3.811,9.376t-3.812,7.548c0,.712.177,1.067.534,1.067a2.25,2.25,0,0,0,1.3-.61q.761-.607,8.082-7.013,24.849-19.515,27.139-19.515h.153a3.284,3.284,0,0,1,1.829.609,2.053,2.053,0,0,1,.915,1.83q0,1.221-3.507,4.345T764.834,859.492Z" transform="translate(-454.707 3.523)" fill="#fff"/><path d="M812.7,858.513a3.485,3.485,0,0,1,1.982-.762c.61,0,.915.357.915,1.066v.306q-15.86,13.114-26.377,19.667t-19.059,6.556q-6.86,0-6.861-6.708,0-9.909,10.063-20.355t16.924-10.444q3.808,0,3.811,4.269-.765,8.387-24.091,22.566V876.2q0,5.033,5.26,5.032a23.007,23.007,0,0,0,11.359-3.508,150.547,150.547,0,0,0,22.261-16.009Zm-26.377-5.947q-3.356,0-8.615,5.642a29.121,29.121,0,0,0-7.09,12.807,66.517,66.517,0,0,0,12.35-9.377Q788,856.685,788,854.625T786.324,852.566Z" transform="translate(-452.717 3.434)" fill="#fff"/><path d="M844.471,858.852a3.485,3.485,0,0,1,1.982-.762c.61,0,.915.357.915,1.067v.306q-11.435,9.146-22.566,17.152t-16.313,8q-3.813,0-3.812-4.117t3.659-8.233a73.661,73.661,0,0,1,7.243-7.167q3.58-3.048,3.583-4.04a3.724,3.724,0,0,0-1.144-2.288,9.17,9.17,0,0,0-1.906-1.753q-2.592,2.595-11.282,9.453l-.61-2.286q9.605-7.624,11.13-10.216V852.6q0-3.81.762-5.184a16.723,16.723,0,0,1,3.66-3.811q2.894-2.439,3.965-2.44a2.762,2.762,0,0,1,1.905.762,2.136,2.136,0,0,1,.839,1.525,3.817,3.817,0,0,1-.533,1.754,12.437,12.437,0,0,1-1.068,1.677q-.536.686-1.448,1.677a11.123,11.123,0,0,0-1.145,1.372,5.212,5.212,0,0,0-.457,1.3,2.77,2.77,0,0,1-.991,1.525,1.873,1.873,0,0,0-.763,1.525,15.372,15.372,0,0,0,1.22,4.04,14.527,14.527,0,0,1,1.22,4.574q0,1.45-5.642,6.86t-5.642,8.768q0,1.83,1.677,1.829,2.134,0,7.929-3.812l1.829-1.219q9.909-6.861,18.6-13.875Z" transform="translate(-450.639 3.095)" fill="#fff"/><path d="M902.529,858.351a4.129,4.129,0,0,1,2.059-.762c.557,0,.838.357.838,1.066v.306a273.647,273.647,0,0,1-24.777,18.6q-13.035,8.691-16.542,8.691a12.1,12.1,0,0,1-5.869-1.3q-2.366-1.3-2.364-2.974a4.376,4.376,0,0,1,.914-2.82c.611-.763,1.167-1.143,1.677-1.143s1.346.788,2.517,2.362,2.311,2.364,3.43,2.364q3.505,0,5.489-7.471t1.982-10.292q0-2.82-.381-2.82a.948.948,0,0,0-.686.3l-4.422,3.506-.61-2.287q9.605-7.623,11.13-10.215.916-2.437,2.592-2.439c.71,0,1.068.254,1.068.762a11.632,11.632,0,0,1-1.068,3.278q-1.069,2.516-2.82,11.359a99.509,99.509,0,0,0-1.754,10.216c0,.914.252,1.372.762,1.372A205.769,205.769,0,0,0,898.26,861.7Z" transform="translate(-448.015 3.596)" fill="#fff"/><path d="M983.189,820.812l-21.8-1.067q-13.418,0-26.682,1.067l.762,3.05q0,1.682-9.91,12.731t-19.821,24.09q-9.913,13.035-9.91,19.287,0,2.442,1.753,2.439t8-4.269q11.585-7.624,21.193-15.4L930.13,860a3.353,3.353,0,0,1,1.829-.762c.508,0,.763.3.763.914v.458q.607,0-8.157,6.708t-18.753,13.417q-9.988,6.712-12.579,6.709-4.424,0-4.422-3.965,0-5.793,6.48-16.009a172.667,172.667,0,0,1,14.18-19.287q7.7-9.069,14.637-17.153t7.547-9.91q-16.774,1.526-25.768,3.659l-3.049.609q-1.221.155-1.22,2.288,0,.914-2.134.914a17.944,17.944,0,0,1-5.26-.99q-3.127-.991-3.125-2.821t3.049-2.44q22.562-3.962,32.017-4.8t12.579-1.067q3.122-.23,9.758-.382t8.919-.152q6.863-.3,16.085-.3t11.207.763a2.86,2.86,0,0,1,1.982,2.9Q986.7,820.814,983.189,820.812Z" transform="translate(-446.343 1.798)" fill="#fff"/><path d="M940.365,871.02q8.537,0,20.431-9.605l2.591.762q-14.944,12.5-25.766,12.5a8.106,8.106,0,0,1-1.83-.152,38.476,38.476,0,0,1-8.995,8.156q-4.882,3.124-8.539,3.126-5.8,0-5.794-6.48t10.825-17.3a24.087,24.087,0,0,1-1.83-9.3,10.01,10.01,0,0,1,3.507-7.928,12.051,12.051,0,0,1,8.157-3.049,10.96,10.96,0,0,1,7.853,3.049q3.2,3.052,3.2,8.691,0,8.691-5.642,17.381A8.092,8.092,0,0,0,940.365,871.02Zm-21.651,7.471q0,3.052,3.965,3.05t10.063-8.081a19.138,19.138,0,0,1-7.318-7.471Q918.711,873.307,918.713,878.491Zm16.771-9q4.724-7.927,4.727-13.493t-2.744-8.234q-2.745-2.666-5.337-2.667-5.339,0-5.336,5.488a26.306,26.306,0,0,0,2.439,10.9A18.55,18.55,0,0,0,935.485,869.5Z" transform="translate(-445.141 3.125)" fill="#fff"/><path d="M1018.594,860.283q-32.172,26.836-39.793,26.834-4.425,0-4.422-3.584t8.385-13.417q8.384-9.834,8.386-12.578a.886.886,0,0,0-.611-.3q-4.27,0-13.722,6.556-61.291,85.837-69.678,85.839a3.837,3.837,0,0,1-2.82-1.143,4.663,4.663,0,0,1-1.143-3.431q0-10.519,20.735-35.22a281.375,281.375,0,0,1,42.538-41.623l13.417-19.516v-.152c0-.3-.2-.457-.609-.457q-3.051,5.338-16.467,16.009l-4.422,3.354-.609-2.286a267.672,267.672,0,0,0,21.5-19.516,191.045,191.045,0,0,0,14.027-15.4l4.117-5.337q2.132-2.892,4.726-2.9c1.727,0,2.591.511,2.591,1.525a1.62,1.62,0,0,1-.381,1.068q-.382.457-3.507,4.956t-9.224,13.112q-6.1,8.617-11.435,16.239,8.839-5.031,13.341-5.032t4.5,1.831q0,6.1-12.2,18.753-4.117,4.268-4.116,5.564t2.21,1.3q2.209,0,7.853-3.812,11.128-7.468,20.583-15.094l3.354-2.744a3.484,3.484,0,0,1,1.982-.762.808.808,0,0,1,.916.914ZM909.123,944.6q4.727,0,52.3-68.916A288.6,288.6,0,0,0,924.75,912.96q-16.542,20.2-16.542,30.722A.809.809,0,0,0,909.123,944.6Z" transform="translate(-445.613 2.122)" fill="#fff"/><path d="M1078.811,858.513a3.485,3.485,0,0,1,1.982-.762c.611,0,.915.357.915,1.066v.306q-15.858,13.114-26.377,19.667t-19.059,6.556q-6.861,0-6.861-6.708,0-9.909,10.063-20.355T1056.4,847.84q3.808,0,3.811,4.269-.765,8.387-24.09,22.566V876.2q0,5.033,5.261,5.032a23.012,23.012,0,0,0,11.359-3.508A150.512,150.512,0,0,0,1075,861.715Zm-26.377-5.947q-3.356,0-8.614,5.642a29.109,29.109,0,0,0-7.09,12.807,66.526,66.526,0,0,0,12.35-9.377q5.031-4.953,5.032-7.013T1052.434,852.566Z" transform="translate(-439.202 3.434)" fill="#fff"/><path d="M1061.24,883.886a.943.943,0,0,1-1.068-1.067q0-.608,1.525-2.135,4.117-4.574,14.179-12.349,1.979-9,1.983-10.063a2.257,2.257,0,0,0-.992-1.83c-.662-.508-.991-.889-.991-1.144s.306-.685.916-1.3q4.117-2.893,5.794-2.9,2.287,0,2.287,2.439,0,1.221-2.439,9.758,18.9-13.721,21.954-13.721a2.253,2.253,0,0,1,1.679.838,2.376,2.376,0,0,1,.761,1.449q0,.308-7.319,4.422t-18.143,11.74a38.158,38.158,0,0,0-1.067,7.624q0,5.031,2.592,5.031,1.98,0,12.959-6.708,8.841-6.1,17.534-13.112l2.9-2.44a3.412,3.412,0,0,1,1.906-.762q.837,0,.838,1.22v.152q-31.1,25.613-38.27,25.614-6.1,0-6.1-7.471,0-1.371.3-4.422a99.405,99.405,0,0,0-11.282,9.605A5.832,5.832,0,0,1,1061.24,883.886Z" transform="translate(-437.639 3.523)" fill="#fff"/><path d="M1170.656,860.283q-32.171,26.836-39.793,26.834-4.424,0-4.421-3.584t8.386-13.417q8.382-9.834,8.385-12.578a.886.886,0,0,0-.611-.3q-4.27,0-13.721,6.556-61.293,85.837-69.678,85.839a3.835,3.835,0,0,1-2.821-1.143,4.659,4.659,0,0,1-1.143-3.431q0-10.519,20.735-35.22a281.3,281.3,0,0,1,42.538-41.623l13.418-19.516v-.152c0-.3-.206-.457-.611-.457q-3.053,5.338-16.467,16.009l-4.422,3.354-.609-2.286a267.747,267.747,0,0,0,21.5-19.516,191.012,191.012,0,0,0,14.027-15.4l4.117-5.337q2.133-2.892,4.726-2.9c1.727,0,2.592.511,2.592,1.525a1.619,1.619,0,0,1-.382,1.068q-.381.457-3.506,4.956t-9.224,13.112q-6.1,8.617-11.435,16.239,8.839-5.031,13.34-5.032t4.5,1.831q0,6.1-12.2,18.753-4.116,4.268-4.116,5.564t2.21,1.3q2.21,0,7.853-3.812,11.128-7.468,20.583-15.094l3.354-2.744a3.484,3.484,0,0,1,1.983-.762.808.808,0,0,1,.914.914ZM1061.185,944.6q4.727,0,52.3-68.916a288.523,288.523,0,0,0-36.667,37.279q-16.542,20.2-16.544,30.722A.809.809,0,0,0,1061.185,944.6Z" transform="translate(-437.89 2.122)" fill="#fff"/><path d="M1199.349,861.041a3.481,3.481,0,0,1,1.982-.762c.609,0,.915.357.915,1.067v.306q-15.86,13.114-24.091,18.3-10.674,8.083-17.99,8.081-6.4,0-6.4-7.622,0-10.214,13.188-30.266a214.389,214.389,0,0,1,29.655-36.058q16.467-16.009,24.853-16.01,3.808,0,3.811,3.354,0,8.388-20.05,27.674a333.055,333.055,0,0,1-39.413,32.857q-5.643,10.827-5.641,16.466t3.963,5.642q3.963,0,10.368-4.574a144.884,144.884,0,0,0,21.04-15.247Zm18.295-58.091q-6.4,0-22.717,18.448a229.694,229.694,0,0,0-26.986,36.9,226.842,226.842,0,0,0,34.3-30.569q16.771-18.068,16.771-23.4A1.213,1.213,0,0,0,1217.644,802.95Z" transform="translate(-432.886 0.906)" fill="#fff"/><path d="M1209.811,871.02q8.538,0,20.431-9.605l2.592.762q-14.944,12.5-25.766,12.5a8.1,8.1,0,0,1-1.83-.152,38.476,38.476,0,0,1-8.995,8.156q-4.882,3.124-8.539,3.126-5.8,0-5.793-6.48t10.824-17.3a24.1,24.1,0,0,1-1.829-9.3,10.012,10.012,0,0,1,3.506-7.928,12.051,12.051,0,0,1,8.157-3.049,10.961,10.961,0,0,1,7.853,3.049q3.2,3.052,3.2,8.691,0,8.691-5.642,17.381A8.093,8.093,0,0,0,1209.811,871.02Zm-21.649,7.471q0,3.052,3.964,3.05t10.063-8.081a19.136,19.136,0,0,1-7.318-7.471Q1188.158,873.307,1188.161,878.491Zm16.771-9q4.724-7.927,4.727-13.493t-2.745-8.234q-2.744-2.666-5.336-2.667-5.339,0-5.336,5.488a26.287,26.287,0,0,0,2.439,10.9A18.556,18.556,0,0,0,1204.932,869.5Z" transform="translate(-431.456 3.125)" fill="#fff"/><path d="M1264.82,858.852a3.483,3.483,0,0,1,1.982-.762c.61,0,.914.357.914,1.067v.306q-11.435,9.146-22.564,17.152t-16.315,8q-3.813,0-3.812-4.117t3.66-8.233a73.549,73.549,0,0,1,7.242-7.167q3.581-3.048,3.583-4.04a3.728,3.728,0,0,0-1.143-2.288,9.189,9.189,0,0,0-1.906-1.753q-2.595,2.595-11.284,9.453l-.609-2.286q9.6-7.624,11.13-10.216V852.6q0-3.81.763-5.184a16.723,16.723,0,0,1,3.66-3.811q2.892-2.439,3.963-2.44a2.767,2.767,0,0,1,1.906.762,2.14,2.14,0,0,1,.839,1.525,3.817,3.817,0,0,1-.534,1.754,12.2,12.2,0,0,1-1.068,1.677q-.536.686-1.448,1.677a11.3,11.3,0,0,0-1.144,1.372,5.172,5.172,0,0,0-.457,1.3,2.767,2.767,0,0,1-.991,1.525,1.875,1.875,0,0,0-.762,1.525,15.372,15.372,0,0,0,1.22,4.04,14.555,14.555,0,0,1,1.22,4.574q0,1.45-5.643,6.86t-5.64,8.768c0,1.22.557,1.829,1.677,1.829q2.134,0,7.928-3.812l1.831-1.219q9.907-6.861,18.6-13.875Z" transform="translate(-429.29 3.095)" fill="#fff"/><path d="M1292.44,858.847a4.056,4.056,0,0,1,1.906-.762q.686,0,.686.914v.458q.607,0-8.157,6.708t-18.753,13.416q-9.988,6.712-12.579,6.709-4.422,0-4.421-3.66,0-4.42,7.623-16.7t11.131-12.273q2.59,0,2.591,1.982t-7.013,10.825q-7.015,8.844-7.014,12.655c0,1.425.534,2.134,1.6,2.134s3.737-1.422,8.005-4.268q11.435-7.624,21.041-15.4Zm-12.578-20.583a2.949,2.949,0,0,1,2.287.916,3.707,3.707,0,0,1,.839,2.591q0,1.68-2.287,4.269t-3.964,2.593a2.879,2.879,0,0,1-2.44-.992,3.634,3.634,0,0,1-.762-2.286q0-1.294,2.439-4.193T1279.862,838.264Z" transform="translate(-427.941 2.948)" fill="#fff"/><path d="M1352.5,858.853q-32.173,26.836-39.794,26.834-4.424,0-4.422-3.66t3.278-8.69a90.142,90.142,0,0,1,6.556-8.92q3.277-3.888,3.277-4.65t-.457-.762q-14.179,9.454-16.847,11.587t-8.691,7.013q-6.024,4.882-7.851,6.1a7.019,7.019,0,0,1-3.965,1.22q-2.135,0-2.134-1.83,0-2.132,8.538-13.417,8.234-11.28,8.234-12.655,0-.3-.535-.3t-13.187,9.3l-.61-2.286q10.823-8.691,14.637-11.13t6.176-2.44a2.055,2.055,0,0,1,2.362,2.287q0,1.526-8.613,12.425t-8.616,11.74c0,.56.177.838.534.838s6.149-4.089,17.382-12.273,18.066-12.273,20.506-12.273a3.177,3.177,0,0,1,2.059.838,2.268,2.268,0,0,1,.991,1.6q0,1.83-8.081,12.121t-8.081,11.664q0,1.373,1.906,1.372t8.157-4.116a234.345,234.345,0,0,0,21.04-15.4l3.355-2.744a3.483,3.483,0,0,1,1.982-.762.808.808,0,0,1,.915.914Z" transform="translate(-426.401 3.552)" fill="#fff"/><path d="M1393.6,858.55a3.483,3.483,0,0,1,1.982-.762c.609,0,.915.357.915,1.067v.306a286.489,286.489,0,0,1-23.175,17.686l-30.494,19.82-9.453,13.265q-21.957,30.036-21.955,32.323-2.439,5.335-4.727,5.337-2.9,0-2.9-3.812t3.735-10.215a59.666,59.666,0,0,1,7.395-10.369l14.484-15.246q1.83-2.9,7.471-10.673t7.471-10.368l6.556-9.758.3-.609a.271.271,0,0,0-.3-.306q-9,7.473-14.942,7.471t-5.946-3.431q0-3.43,4.574-9.071a78.044,78.044,0,0,1,11.054-10.978A74.223,74.223,0,0,1,1359.976,851q7.852-3.889,13.875-3.888t6.023,4.27q0,3.051-5.719,7.318t-7.013,4.27q-1.3,0-1.3-.61c0-.61.4-1.167,1.22-1.677q5.181-3.66,5.183-6.938t-2.745-3.277q-6.711,0-18.677,11.358t-11.97,16.087q0,1.371,2.211,1.371t7.547-3.583a37.221,37.221,0,0,0,8.082-6.936l4.117-5.185a2.334,2.334,0,0,1,1.982-1.066,3.241,3.241,0,0,1,2.135.761,2.086,2.086,0,0,1,.915,1.525L1347.4,890.415l22.566-14.179a156.73,156.73,0,0,0,20.125-14.636Z" transform="translate(-425.267 3.397)" fill="#fff"/><path d="M1390.405,879.533a3.3,3.3,0,0,1,2.44.914,3.733,3.733,0,0,1,.914,2.745,7.241,7.241,0,0,1-1.982,4.27q-1.983,2.437-3.659,2.439a3.356,3.356,0,0,1-2.592-.99,3.283,3.283,0,0,1-.914-2.289q0-1.293,2.134-4.192T1390.405,879.533Zm51.838-86.373a19.868,19.868,0,0,1,2.821-3.278,5.209,5.209,0,0,1,3.583-1.677,3.212,3.212,0,0,1,2.744,1.22q0,.764-23.861,37.506t-28.587,44.216q-1.68,2.745-3.2,2.745c-.815,0-1.22-.558-1.22-1.677q.15-.914,23.4-39.185T1442.244,793.161Z" transform="translate(-421.161 0.405)" fill="#fff"/></g></svg>